<svg xmlns="http://www.w3.org/2000/svg" viewBox="0 0 64 64">
  <!-- Glifo monocromo para el botón de accesos rápidos (Android) y el control del Centro de control (iOS).
       Un solo color: hereda currentColor. -->
  <g fill="currentColor">
    <rect x="7" y="20" width="4" height="10" rx="1.5"/>
    <rect x="53" y="20" width="4" height="10" rx="1.5"/>
    <rect x="15" y="54" width="10" height="5.5" rx="2"/>
    <rect x="39" y="54" width="10" height="5.5" rx="2"/>
    <path fill-rule="evenodd" d="M21 8h22a9 9 0 0 1 9 9v32a5 5 0 0 1-5 5H17a5 5 0 0 1-5-5V17a9 9 0 0 1 9-9zm-1 7h24a3 3 0 0 1 3 3v9a3 3 0 0 1-3 3H20a3 3 0 0 1-3-3v-9a3 3 0 0 1 3-3zm1 23.5a3.5 3.5 0 1 0 0 7 3.5 3.5 0 0 0 0-7zm22 0a3.5 3.5 0 1 0 0 7 3.5 3.5 0 0 0 0-7z"/>
  </g>
</svg>
